<svg width="16" height="11" viewBox="0 0 16 11" fill="none" xmlns="http://www.w3.org/2000/svg">
<path d="M1.22251 6.9295L12.4407 6.9295L10.0152 9.35111C9.83585 9.53022 9.73507 9.77313 9.73507 10.0264C9.73507 10.2797 9.83585 10.5226 10.0152 10.7017C10.1946 10.8808 10.4379 10.9814 10.6916 10.9814C10.9453 10.9814 11.1886 10.8808 11.368 10.7017L15.4261 6.64992C15.6051 6.47058 15.7055 6.22776 15.7055 5.97463C15.7055 5.7215 15.6051 5.47868 15.4261 5.29933L15.4268 5.29865L11.3686 1.24687C11.1893 1.06777 10.946 0.967151 10.6923 0.967151C10.4386 0.967151 10.1953 1.06777 10.0159 1.24687C9.83653 1.42597 9.73575 1.66888 9.73575 1.92217C9.73575 2.17545 9.83653 2.41836 10.0159 2.59746L12.4413 5.01908L1.22319 5.01908C1.0975 5.01872 0.972971 5.04318 0.856776 5.09103C0.740581 5.13889 0.635007 5.20922 0.546128 5.29796C0.457248 5.38669 0.386816 5.4921 0.338881 5.60811C0.290946 5.72413 0.266454 5.84846 0.266813 5.97395C0.266707 6.09938 0.291371 6.22359 0.339396 6.33949C0.387421 6.45539 0.457863 6.5607 0.546692 6.64939C0.635521 6.73807 0.740993 6.80841 0.857075 6.85635C0.973156 6.9043 1.09757 6.92893 1.22319 6.92882L1.22251 6.9295Z" fill="white"/>
</svg>
