<svg width="21" height="19" viewBox="0 0 21 19" fill="none" xmlns="http://www.w3.org/2000/svg">
<path d="M8.80027 1.16211C9.58243 -0.0991973 11.4176 -0.0991994 12.1997 1.1621L19.8417 13.4855C20.6679 14.8179 19.7097 16.5396 18.142 16.5396H2.85802C1.29031 16.5396 0.332099 14.8179 1.1583 13.4855L8.80027 1.16211Z" fill="#FF0000"/>
<path d="M11.2383 11.2756H9.83202L9.6328 5.36353H11.4375L11.2383 11.2756ZM10.5351 12.2014C10.8203 12.2014 11.0488 12.2854 11.2207 12.4534C11.3965 12.6213 11.4844 12.8362 11.4844 13.0979C11.4844 13.3557 11.3965 13.5686 11.2207 13.7366C11.0488 13.9045 10.8203 13.9885 10.5351 13.9885C10.2539 13.9885 10.0254 13.9045 9.8496 13.7366C9.67772 13.5686 9.59178 13.3557 9.59178 13.0979C9.59178 12.8401 9.67772 12.6272 9.8496 12.4592C10.0254 12.2874 10.2539 12.2014 10.5351 12.2014Z" fill="white"/>
</svg>
