<svg width="20" height="20" viewBox="0 0 20 20" fill="none" xmlns="http://www.w3.org/2000/svg">
<path d="M9.99998 0.833333C4.93998 0.833333 0.833313 4.94 0.833313 10C0.833313 15.06 4.93998 19.1667 9.99998 19.1667H14.5833V17.3333H9.99998C6.02165 17.3333 2.66665 13.9783 2.66665 10C2.66665 6.02167 6.02165 2.66667 9.99998 2.66667C13.9783 2.66667 17.3333 6.02167 17.3333 10V11.3108C17.3333 12.035 16.6825 12.75 15.9583 12.75C15.2341 12.75 14.5833 12.035 14.5833 11.3108V10C14.5833 7.47 12.53 5.41667 9.99998 5.41667C7.46998 5.41667 5.41665 7.47 5.41665 10C5.41665 12.53 7.46998 14.5833 9.99998 14.5833C11.265 14.5833 12.42 14.07 13.245 13.2358C13.8408 14.0517 14.8675 14.5833 15.9583 14.5833C17.7641 14.5833 19.1666 13.1167 19.1666 11.3108V10C19.1666 4.94 15.06 0.833333 9.99998 0.833333ZM9.99998 12.75C8.47831 12.75 7.24998 11.5217 7.24998 10C7.24998 8.47833 8.47831 7.25 9.99998 7.25C11.5216 7.25 12.75 8.47833 12.75 10C12.75 11.5217 11.5216 12.75 9.99998 12.75Z" fill="#CC3366"/>
</svg>
