<svg width="19" height="19" viewBox="0 0 19 19" fill="none" xmlns="http://www.w3.org/2000/svg">
<path d="M18.9984 9.5C18.9984 4.25283 14.7456 0 9.49921 0C4.25283 0 0 4.25283 0 9.5C0 14.2405 3.47383 18.1703 8.01483 18.8828V12.2455H5.60342V9.49921H8.01483V7.40683C8.01483 5.0255 9.4335 3.71054 11.6027 3.71054C12.6421 3.71054 13.7291 3.89579 13.7291 3.89579V6.23358H12.5321C11.3525 6.23358 10.9844 6.96587 10.9844 7.71717V9.5H13.619L13.1979 12.2463H10.9844V18.8836C15.5254 18.1711 18.9992 14.2413 18.9992 9.5H18.9984Z" fill="#454C8F"/>
</svg>
