<svg width="18" height="18" viewBox="0 0 18 18" fill="none" xmlns="http://www.w3.org/2000/svg">
<path d="M6.25 0.4375V3.875H4.875V2.5H0.75V14.875H2.125V15.5625C2.125 16.6934 3.05656 17.625 4.1875 17.625C5.31844 17.625 6.25 16.6934 6.25 15.5625V14.875H17.25V3.875H14.5V0.4375H6.25ZM7.625 1.8125H13.125V5.25H7.625V1.8125ZM2.125 3.875H3.5V13.5H2.125V3.875ZM4.875 5.25H6.25V6.625H14.5V5.25H15.875V13.5H4.875V5.25ZM6.9375 8V9.375H8.3125V8H6.9375ZM9.6875 8V9.375H11.0625V8H9.6875ZM12.4375 8V9.375H13.8125V8H12.4375ZM6.9375 10.75V12.125H8.3125V10.75H6.9375ZM9.6875 10.75V12.125H11.0625V10.75H9.6875ZM12.4375 10.75V12.125H13.8125V10.75H12.4375ZM3.5 14.875H4.875V15.5625C4.875 15.9441 4.56906 16.25 4.1875 16.25C3.80594 16.25 3.5 15.9441 3.5 15.5625V14.875Z" fill="#0028B6"/>
</svg>
