<svg width="22" height="22" viewBox="0 0 22 22" fill="none" xmlns="http://www.w3.org/2000/svg">
<path d="M8.25 3.4375V6.875H6.875V5.5H2.75V17.875H4.125V18.5625C4.125 19.6934 5.05656 20.625 6.1875 20.625C7.31844 20.625 8.25 19.6934 8.25 18.5625V17.875H19.25V6.875H16.5V3.4375H8.25ZM9.625 4.8125H15.125V8.25H9.625V4.8125ZM4.125 6.875H5.5V16.5H4.125V6.875ZM6.875 8.25H8.25V9.625H16.5V8.25H17.875V16.5H6.875V8.25ZM8.9375 11V12.375H10.3125V11H8.9375ZM11.6875 11V12.375H13.0625V11H11.6875ZM14.4375 11V12.375H15.8125V11H14.4375ZM8.9375 13.75V15.125H10.3125V13.75H8.9375ZM11.6875 13.75V15.125H13.0625V13.75H11.6875ZM14.4375 13.75V15.125H15.8125V13.75H14.4375ZM5.5 17.875H6.875V18.5625C6.875 18.9441 6.56906 19.25 6.1875 19.25C5.80594 19.25 5.5 18.9441 5.5 18.5625V17.875Z" fill="#0028B6"/>
</svg>
