<svg width="26" height="18" viewBox="0 0 26 18" fill="none" xmlns="http://www.w3.org/2000/svg">
<g clip-path="url(#clip0)">
<path d="M7.22222 -0.388916H2.88889C2.12271 -0.388916 1.38791 -0.0845519 0.846136 0.45722C0.304364 0.998992 0 1.73379 0 2.49997L0 6.83331H7.22222V-0.388916ZM23.1111 -0.388916H11.5556V6.83331H26V2.49997C26 1.73379 25.6956 0.998992 25.1539 0.45722C24.6121 -0.0845519 23.8773 -0.388916 23.1111 -0.388916ZM7.22222 18.3889H2.88889C2.12271 18.3889 1.38791 18.0845 0.846136 17.5427C0.304364 17.001 0 16.2662 0 15.5V11.1666H7.22222V18.3889ZM23.1111 18.3889H11.5556V11.1666H26V15.5C26 16.2662 25.6956 17.001 25.1539 17.5427C24.6121 18.0845 23.8773 18.3889 23.1111 18.3889Z" fill="#EF2B2D"/>
<path d="M10.4722 -0.388916H8.346L8.32794 7.91664H0V10.0833H8.32361L8.30556 18.3889H10.4722V10.0833H26V7.91664H10.4722V-0.388916Z" fill="#002868"/>
<path d="M10.4722 18.3889H11.5556V11.1666H26V10.0833H10.4722V18.3889ZM11.5556 -0.388916H10.4722V7.91664H26V6.83331H11.5556V-0.388916ZM8.30556 -0.388916H7.22222V6.83331H0V7.91664H8.30556V-0.388916ZM0 10.0833V11.1666H7.22222V18.3889H8.30556V10.0833H0Z" fill="#EEEEEE"/>
</g>
<defs>
<clipPath id="clip0">
<rect width="26" height="18" fill="white"/>
</clipPath>
</defs>
</svg>
