<svg width="20" height="21" viewBox="0 0 20 21" fill="none" xmlns="http://www.w3.org/2000/svg">
<path d="M9 7.6304H11V5.63705H9V7.6304ZM10 18.5938C5.59 18.5938 2 15.0158 2 10.6204C2 6.22509 5.59 2.64703 10 2.64703C14.41 2.64703 18 6.22509 18 10.6204C18 15.0158 14.41 18.5938 10 18.5938ZM10 0.653687C8.68678 0.653687 7.38642 0.911484 6.17317 1.41236C4.95991 1.91323 3.85752 2.64738 2.92893 3.57288C1.05357 5.442 0 7.97708 0 10.6204C0 13.2638 1.05357 15.7988 2.92893 17.668C3.85752 18.5935 4.95991 19.3276 6.17317 19.8285C7.38642 20.3294 8.68678 20.5872 10 20.5872C12.6522 20.5872 15.1957 19.5371 17.0711 17.668C18.9464 15.7988 20 13.2638 20 10.6204C20 9.31157 19.7413 8.01554 19.2388 6.80632C18.7362 5.5971 17.9997 4.49837 17.0711 3.57288C16.1425 2.64738 15.0401 1.91323 13.8268 1.41236C12.6136 0.911484 11.3132 0.653687 10 0.653687ZM9 15.6038H11V9.62375H9V15.6038Z" fill="#688AB0"/>
</svg>
