<svg width="20" height="20" viewBox="0 0 20 20" fill="none" xmlns="http://www.w3.org/2000/svg">
<path d="M18 0.22522H4.693C4.28611 0.226566 3.88922 0.350959 3.55478 0.581953C3.22035 0.812948 2.96413 1.13966 2.82 1.51891L0.0630013 8.84549C0.0211408 8.9574 -0.000198357 9.07589 1.38939e-06 9.19533V11.1887C1.38939e-06 12.288 0.897001 13.182 2 13.182H7.612L6.49 16.5379C6.38997 16.8375 6.36264 17.1565 6.41027 17.4687C6.4579 17.7809 6.57913 18.0774 6.764 18.3339C7.14 18.8521 7.746 19.1621 8.388 19.1621H10C10.297 19.1621 10.578 19.0305 10.769 18.8033L15.469 13.182H18C19.103 13.182 20 12.288 20 11.1887V2.21858C20 1.11924 19.103 0.22522 18 0.22522ZM9.531 17.1688H8.386L9.948 12.5003C9.99804 12.3506 10.0117 12.1911 9.98781 12.0351C9.96392 11.879 9.9032 11.7309 9.81063 11.6028C9.71807 11.4747 9.59631 11.3704 9.45537 11.2984C9.31444 11.2264 9.15837 11.1888 9 11.1887H2V9.37572L4.693 2.21858H14V11.8246L9.531 17.1688ZM16 11.1887V2.21858H18L18.001 11.1887H16Z" fill="#E37373"/>
</svg>
