<svg width="20" height="19" viewBox="0 0 20 19" fill="none" xmlns="http://www.w3.org/2000/svg">
<path d="M18 5.99056H12.388L13.511 2.62886C13.713 2.02181 13.611 1.34887 13.236 0.829692C12.861 0.310511 12.253 0 11.612 0H10C9.703 0 9.422 0.131792 9.231 0.359433L4.531 5.99056H2C0.897 5.99056 0 6.88614 0 7.98741V16.9732C0 18.0745 0.897 18.9701 2 18.9701H15.307C15.7139 18.9687 16.1108 18.8441 16.4452 18.6127C16.7796 18.3813 17.0359 18.054 17.18 17.6741L19.937 10.3347C19.9789 10.2226 20.0002 10.1039 20 9.98426V7.98741C20 6.88614 19.103 5.99056 18 5.99056ZM2 7.98741H4V16.9732H2V7.98741ZM18 9.80354L15.307 16.9732H6V7.35041L10.468 1.99685H11.614L10.052 6.67248C10.0013 6.82256 9.98715 6.98254 10.0107 7.13917C10.0343 7.2958 10.095 7.44455 10.1877 7.5731C10.2803 7.70165 10.4024 7.80629 10.5436 7.87834C10.6849 7.95039 10.8414 7.98778 11 7.98741H18V9.80354Z" fill="white"/>
</svg>
