<svg width="20" height="20" viewBox="0 0 20 20" fill="none" xmlns="http://www.w3.org/2000/svg">
<path d="M18 6.83111H12.388L13.511 3.47531C13.713 2.86933 13.611 2.19758 13.236 1.67931C12.861 1.16104 12.253 0.851074 11.612 0.851074H10C9.703 0.851074 9.422 0.982635 9.231 1.20988L4.531 6.83111H2C0.897 6.83111 0 7.72512 0 8.82445V17.7945C0 18.8938 0.897 19.7878 2 19.7878H15.307C15.7139 19.7865 16.1108 19.6621 16.4452 19.4311C16.7797 19.2001 17.0359 18.8734 17.18 18.4942L19.937 11.1676C19.9789 11.0557 20.0002 10.9372 20 10.8178V8.82445C20 7.72512 19.103 6.83111 18 6.83111ZM2 8.82445H4V17.7945H2V8.82445ZM18 10.6374L15.307 17.7945H6V8.18857L10.468 2.84442H11.614L10.052 7.51183C10.0013 7.66165 9.98715 7.82135 10.0107 7.9777C10.0343 8.13406 10.095 8.28255 10.1877 8.41087C10.2803 8.5392 10.4024 8.64365 10.5436 8.71558C10.6849 8.7875 10.8414 8.82482 11 8.82445H18V10.6374Z" fill="#5ACA65"/>
</svg>
