<svg width="22" height="22" viewBox="0 0 22 22" fill="none" xmlns="http://www.w3.org/2000/svg">
<path d="M14.9966 12.8333C15.07 12.2283 15.125 11.6233 15.125 11C15.125 10.3766 15.07 9.77165 14.9966 9.16665H18.095C18.2416 9.75331 18.3333 10.3675 18.3333 11C18.3333 11.6325 18.2416 12.2466 18.095 12.8333H14.9966ZM13.3741 17.93C13.9241 16.9125 14.3458 15.8125 14.6391 14.6666H17.3433C16.4552 16.1959 15.0463 17.3543 13.3741 17.93ZM13.145 12.8333H8.85498C8.76331 12.2283 8.70831 11.6233 8.70831 11C8.70831 10.3766 8.76331 9.76248 8.85498 9.16665H13.145C13.2275 9.76248 13.2916 10.3766 13.2916 11C13.2916 11.6233 13.2275 12.2283 13.145 12.8333ZM11 18.2966C10.2391 17.1966 9.62498 15.9775 9.24915 14.6666H12.7508C12.375 15.9775 11.7608 17.1966 11 18.2966ZM7.33331 7.33331H4.65665C5.5356 5.79993 6.94354 4.63968 8.61665 4.06998C8.06665 5.08748 7.65415 6.18748 7.33331 7.33331ZM4.65665 14.6666H7.33331C7.65415 15.8125 8.06665 16.9125 8.61665 17.93C6.94705 17.354 5.54109 16.1954 4.65665 14.6666ZM3.90498 12.8333C3.75831 12.2466 3.66665 11.6325 3.66665 11C3.66665 10.3675 3.75831 9.75331 3.90498 9.16665H7.00331C6.92998 9.77165 6.87498 10.3766 6.87498 11C6.87498 11.6233 6.92998 12.2283 7.00331 12.8333H3.90498ZM11 3.69415C11.7608 4.79415 12.375 6.02248 12.7508 7.33331H9.24915C9.62498 6.02248 10.2391 4.79415 11 3.69415ZM17.3433 7.33331H14.6391C14.3523 6.19798 13.9274 5.10205 13.3741 4.06998C15.0608 4.64748 16.4633 5.81165 17.3433 7.33331ZM11 1.83331C5.93081 1.83331 1.83331 5.95831 1.83331 11C1.83331 13.4311 2.79908 15.7627 4.51817 17.4818C5.36937 18.333 6.3799 19.0082 7.49205 19.4689C8.6042 19.9295 9.7962 20.1666 11 20.1666C13.4311 20.1666 15.7627 19.2009 17.4818 17.4818C19.2009 15.7627 20.1666 13.4311 20.1666 11C20.1666 9.7962 19.9295 8.6042 19.4689 7.49205C19.0082 6.3799 18.333 5.36937 17.4818 4.51817C16.6306 3.66696 15.6201 2.99175 14.5079 2.53108C13.3958 2.07042 12.2038 1.83331 11 1.83331Z" fill="#3399CC"/>
</svg>
