<svg width="16" height="11" viewBox="0 0 16 11" fill="none" xmlns="http://www.w3.org/2000/svg">
<path d="M14.7775 4.94275L3.55933 4.94275L5.98477 2.52731C6.16415 2.34867 6.26492 2.10638 6.26492 1.85374C6.26492 1.6011 6.16415 1.3588 5.98477 1.18016C5.80538 1.00152 5.56209 0.901158 5.3084 0.901158C5.05472 0.901158 4.81142 1.00152 4.63204 1.18016L0.57386 5.22161C0.394944 5.4005 0.294491 5.6427 0.294491 5.89519C0.294491 6.14767 0.394944 6.38987 0.573859 6.56876L0.573183 6.56944L4.63136 10.6109C4.81074 10.7895 5.05404 10.8899 5.30772 10.8899C5.56141 10.8899 5.8047 10.7895 5.98409 10.6109C6.16347 10.4322 6.26425 10.19 6.26425 9.93731C6.26425 9.68467 6.16347 9.44238 5.98409 9.26374L3.55865 6.8483L14.7768 6.8483C14.9025 6.84865 15.027 6.82426 15.1432 6.77653C15.2594 6.72879 15.365 6.65865 15.4539 6.57013C15.5428 6.48162 15.6132 6.37648 15.6611 6.26077C15.7091 6.14505 15.7335 6.02104 15.7332 5.89586C15.7333 5.77076 15.7086 5.64686 15.6606 5.53125C15.6126 5.41565 15.5421 5.31061 15.4533 5.22215C15.3645 5.13369 15.259 5.06354 15.1429 5.01571C15.0268 4.96788 14.9024 4.94332 14.7768 4.94343L14.7775 4.94275Z" fill="#688AB0"/>
</svg>
