<svg width="18" height="20" viewBox="0 0 18 20" fill="none" xmlns="http://www.w3.org/2000/svg">
<path d="M10.5333 9.66668C10.5665 9.66671 10.5989 9.65704 10.6265 9.63889C10.6541 9.62073 10.6757 9.5949 10.6886 9.56463C10.7014 9.53437 10.7049 9.50102 10.6987 9.46876C10.6925 9.43651 10.6768 9.4068 10.6536 9.38335L7.35554 6.06168C7.33211 6.03811 7.30212 6.02198 7.26939 6.01535C7.23667 6.00871 7.20269 6.01188 7.17179 6.02443C7.14089 6.03699 7.11446 6.05837 7.09586 6.08586C7.07727 6.11334 7.06736 6.14568 7.06738 6.17877V9.16668C7.06738 9.29929 7.12057 9.42647 7.21524 9.52024C7.30991 9.61401 7.43831 9.66668 7.57219 9.66668H10.5333Z" fill="#EF2B2D"/>
<path d="M6.26801 10.4583C6.09523 10.2894 5.95794 10.0883 5.86407 9.86663C5.7702 9.64492 5.72162 9.40699 5.72114 9.16658V5.33325H2.6923C1.97891 5.33534 1.29533 5.61696 0.790886 6.11661C0.286438 6.61625 0.00210851 7.29332 0 7.99992V17.3333C0 18.0405 0.283652 18.7188 0.788556 19.2189C1.29346 19.719 1.97826 19.9999 2.6923 19.9999H8.74998C9.46402 19.9999 10.1488 19.719 10.6537 19.2189C11.1586 18.7188 11.4423 18.0405 11.4423 17.3333V10.9999H7.57209C7.32935 10.9996 7.0891 10.9515 6.86524 10.8585C6.64139 10.7656 6.43839 10.6295 6.26801 10.4583Z" fill="#EF2B2D"/>
<path d="M13.6298 4.33343H16.5909C16.6241 4.33346 16.6565 4.32379 16.6841 4.30563C16.7117 4.28748 16.7333 4.26165 16.7462 4.23138C16.759 4.20112 16.7626 4.16776 16.7563 4.13551C16.7501 4.10326 16.7344 4.07355 16.7112 4.0501L13.4132 0.728432C13.3897 0.70486 13.3597 0.68873 13.327 0.682096C13.2943 0.675462 13.2603 0.678625 13.2294 0.691181C13.1985 0.703737 13.1721 0.725119 13.1535 0.752603C13.1349 0.780088 13.125 0.812432 13.125 0.845516V3.83343C13.125 3.96604 13.1782 4.09322 13.2729 4.18699C13.3675 4.28075 13.4959 4.33343 13.6298 4.33343Z" fill="#EF2B2D"/>
<path d="M13.6297 5.66667C13.1399 5.66296 12.6713 5.46862 12.325 5.1256C11.9787 4.78258 11.7825 4.31842 11.7787 3.83333V0H7.23546C6.56628 0.000771921 5.92474 0.264412 5.45156 0.733086C4.97838 1.20176 4.71221 1.8372 4.71143 2.5V4H6.4833C6.70946 4.0009 6.93321 4.04604 7.1417 4.13285C7.35019 4.21966 7.53931 4.34641 7.6982 4.50583L12.2903 9.13083C12.6106 9.45279 12.7895 9.88713 12.7879 10.3392V16H15.0196C16.3872 16 17.4994 14.8783 17.4994 13.5V5.66667H13.6297Z" fill="#EF2B2D"/>
</svg>
