<svg width="22" height="22" viewBox="0 0 22 22" fill="none" xmlns="http://www.w3.org/2000/svg">
<path d="M11 1.83333C5.93998 1.83333 1.83331 5.94 1.83331 11C1.83331 16.06 5.93998 20.1667 11 20.1667H15.5833V18.3333H11C7.02165 18.3333 3.66665 14.9783 3.66665 11C3.66665 7.02167 7.02165 3.66667 11 3.66667C14.9783 3.66667 18.3333 7.02167 18.3333 11V12.3108C18.3333 13.035 17.6825 13.75 16.9583 13.75C16.2341 13.75 15.5833 13.035 15.5833 12.3108V11C15.5833 8.47 13.53 6.41667 11 6.41667C8.46998 6.41667 6.41665 8.47 6.41665 11C6.41665 13.53 8.46998 15.5833 11 15.5833C12.265 15.5833 13.42 15.07 14.245 14.2358C14.8408 15.0517 15.8675 15.5833 16.9583 15.5833C18.7641 15.5833 20.1666 14.1167 20.1666 12.3108V11C20.1666 5.94 16.06 1.83333 11 1.83333ZM11 13.75C9.47831 13.75 8.24998 12.5217 8.24998 11C8.24998 9.47833 9.47831 8.25 11 8.25C12.5216 8.25 13.75 9.47833 13.75 11C13.75 12.5217 12.5216 13.75 11 13.75Z" fill="#CC3366"/>
</svg>
