<?xml version="1.0" encoding="utf-8"?><svg xmlns="http://www.w3.org/2000/svg" xmlns:xlink="http://www.w3.org/1999/xlink"><symbol fill="none" viewBox="0 0 8 6" id="Union" xmlns="http://www.w3.org/2000/svg"><path fill-rule="evenodd" clip-rule="evenodd" d="M6.293 4.9a.991.991 0 001.414 0c.39-.395.39-1.036 0-1.432L4.771.494a.99.99 0 00-.739-.296.99.99 0 00-.74.296L.358 3.468a1.022 1.022 0 000 1.433.991.991 0 001.414 0l2.261-2.29L6.293 4.9z" fill="#fff"/></symbol><symbol fill="none" viewBox="0 0 16 11" id="arrow" xmlns="http://www.w3.org/2000/svg"><path d="M14.777 4.943H3.56l2.426-2.416A.95.95 0 005.308.901c-.253 0-.497.1-.676.28L.574 5.22a.952.952 0 000 1.348l4.057 4.042a.959.959 0 001.633-.674.95.95 0 00-.28-.673L3.56 6.848h11.218a.957.957 0 00.884-.587.946.946 0 000-.73.951.951 0 00-.884-.588z" fill="#688AB0"/></symbol><symbol fill="none" viewBox="0 0 16 11" id="arrow-white" xmlns="http://www.w3.org/2000/svg"><path d="M1.223 6.93H12.44l-2.425 2.42a.954.954 0 00.677 1.63c.253 0 .497-.1.676-.28l4.058-4.051a.956.956 0 000-1.35v-.001L11.37 1.247a.957.957 0 00-1.353 1.35L12.44 5.02H1.223a.955.955 0 100 1.91z" fill="#fff"/></symbol><symbol fill="none" viewBox="0 0 21 19" id="attention" xmlns="http://www.w3.org/2000/svg"><path d="M8.8 1.162a2 2 0 013.4 0l7.642 12.323c.826 1.333-.132 3.055-1.7 3.055H2.858c-1.568 0-2.526-1.722-1.7-3.054L8.8 1.162z" fill="red"/><path d="M11.238 11.276H9.832l-.2-5.912h1.806l-.2 5.912zm-.703.925c.285 0 .514.084.686.252a.852.852 0 01.263.645.85.85 0 01-.263.639c-.172.168-.4.252-.686.252-.281 0-.51-.085-.685-.252a.855.855 0 01-.258-.64c0-.257.086-.47.258-.638.175-.172.404-.258.685-.258z" fill="#fff"/></symbol><symbol viewBox="0 0 45 45" id="dk.png" xmlns="http://www.w3.org/2000/svg"><defs><clipPath id="aea" clipPathUnits="userSpaceOnUse"><path d="M0 36h36V0H0v36z"/></clipPath></defs><g clip-path="url(#aea)" transform="matrix(1.25 0 0 -1.25 0 45)"><path d="M32 31H15V20h21v7a4 4 0 01-4 4M15 5h17c2.209 0 4 1.791 4 4.5V16H15V5zM0 16V9.5C0 6.791 1.791 5 4 5h7v11H0zm11 15H4a4 4 0 01-4-4v-7h11v11z" fill="#c60c30"/><path d="M15 31h-4V20H0v-4h11V5h4v11h21v4H15v11z" fill="#eee"/></g></symbol><symbol fill="none" viewBox="0 0 18 20" id="docs" xmlns="http://www.w3.org/2000/svg"><path d="M10.533 9.667a.17.17 0 00.156-.102.166.166 0 00-.035-.182L7.356 6.062a.169.169 0 00-.289.117v2.988c0 .132.054.26.148.353a.507.507 0 00.357.147h2.961z" fill="#EF2B2D"/><path d="M6.268 10.458a1.82 1.82 0 01-.547-1.291V5.333H2.692a2.713 2.713 0 00-1.901.784A2.662 2.662 0 000 8v9.333c0 .708.284 1.386.789 1.886.504.5 1.19.78 1.903.78H8.75c.714 0 1.399-.28 1.904-.78.505-.5.788-1.178.788-1.886V11h-3.87a1.849 1.849 0 01-1.304-.542zm7.362-6.125h2.96a.17.17 0 00.156-.102.165.165 0 00-.035-.18L13.413.727a.17.17 0 00-.288.118v2.987c0 .133.053.26.148.354a.507.507 0 00.357.146z" fill="#EF2B2D"/><path d="M13.63 5.667a1.874 1.874 0 01-1.305-.541 1.84 1.84 0 01-.546-1.293V0H7.235c-.669 0-1.31.264-1.783.733a2.49 2.49 0 00-.74 1.767V4h1.771a1.731 1.731 0 011.215.506L12.29 9.13c.32.322.5.756.498 1.208V16h2.232c1.367 0 2.48-1.122 2.48-2.5V5.667h-3.87z" fill="#EF2B2D"/></symbol><symbol fill="none" viewBox="0 0 19 19" id="facebook" xmlns="http://www.w3.org/2000/svg"><path d="M18.998 9.5A9.5 9.5 0 100 9.5c0 4.74 3.474 8.67 8.015 9.383v-6.637H5.603V9.498h2.412V7.407c0-2.381 1.418-3.696 3.588-3.696 1.04 0 2.126.185 2.126.185v2.338h-1.197c-1.18 0-1.548.732-1.548 1.483V9.5h2.635l-.421 2.746h-2.214v6.638C15.525 18.17 19 14.24 19 9.5z" fill="#454C8F"/></symbol><symbol fill="none" viewBox="0 0 22 22" id="fax" xmlns="http://www.w3.org/2000/svg"><path d="M8.25 3.438v3.437H6.875V5.5H2.75v12.375h1.375v.688c0 1.13.932 2.062 2.063 2.062 1.13 0 2.062-.932 2.062-2.063v-.687h11v-11H16.5V3.437H8.25zm1.375 1.374h5.5V8.25h-5.5V4.812zm-5.5 2.063H5.5V16.5H4.125V6.875zm2.75 1.375H8.25v1.375h8.25V8.25h1.375v8.25h-11V8.25zM8.938 11v1.375h1.374V11H8.938zm2.75 0v1.375h1.374V11h-1.374zm2.75 0v1.375h1.374V11h-1.374zm-5.5 2.75v1.375h1.374V13.75H8.938zm2.75 0v1.375h1.374V13.75h-1.374zm2.75 0v1.375h1.374V13.75h-1.374zM5.5 17.875h1.375v.688a.685.685 0 01-.688.687.685.685 0 01-.687-.688v-.687z" fill="#0028B6"/></symbol><symbol viewBox="0 0 512 512" id="ico" xmlns="http://www.w3.org/2000/svg"><path d="M32 464V48c0-8.837 7.163-16 16-16h240v64c0 17.673 14.327 32 32 32h64v48h32v-64a15.997 15.997 0 00-4.64-11.36l-96-96A16.001 16.001 0 00304 0H48C21.49 0 0 21.491 0 48v416c0 26.51 21.49 48 48 48h112v-32H48c-8.836 0-16-7.163-16-16zm416-208c-35.346 0-64 28.654-64 64v32c0 35.346 28.654 64 64 64 35.346 0 64-28.654 64-64v-32c0-35.346-28.654-64-64-64zm32 96c0 17.673-14.327 32-32 32-17.673 0-32-14.327-32-32v-32c0-17.673 14.327-32 32-32 17.673 0 32 14.327 32 32v32z"/><path d="M304 288c17.673 0 32 14.327 32 32h32c0-35.346-28.654-64-64-64-35.346 0-64 28.654-64 64v32c0 35.346 28.654 64 64 64 35.346 0 64-28.654 64-64h-32c0 17.673-14.327 32-32 32-17.673 0-32-14.327-32-32v-32c0-17.673 14.327-32 32-32zm-112-32h32v160h-32z"/></symbol><symbol fill="none" viewBox="0 0 20 21" id="inf-feedback" xmlns="http://www.w3.org/2000/svg"><path d="M9 7.63h2V5.637H9V7.63zm1 10.964c-4.41 0-8-3.578-8-7.974 0-4.395 3.59-7.973 8-7.973s8 3.578 8 7.973c0 4.396-3.59 7.974-8 7.974zm0-17.94a10.029 10.029 0 00-7.071 2.919A9.95 9.95 0 000 10.62a9.95 9.95 0 002.929 7.048A10.003 10.003 0 0010 20.588c2.652 0 5.196-1.05 7.071-2.92A9.95 9.95 0 0019.24 6.806a9.965 9.965 0 00-2.168-3.233A10.002 10.002 0 0010 .653zm-1 14.95h2v-5.98H9v5.98z" fill="#688AB0"/></symbol><symbol fill="none" viewBox="0 0 24 24" id="instagram" xmlns="http://www.w3.org/2000/svg"><path d="M20.947 8.305a6.531 6.531 0 00-.419-2.216 4.61 4.61 0 00-2.633-2.633 6.606 6.606 0 00-2.186-.42c-.962-.043-1.267-.055-3.709-.055s-2.755 0-3.71.055a6.606 6.606 0 00-2.185.42 4.607 4.607 0 00-2.633 2.633 6.554 6.554 0 00-.419 2.185c-.043.963-.056 1.268-.056 3.71s0 2.754.056 3.71c.015.748.156 1.486.419 2.187a4.61 4.61 0 002.634 2.632 6.583 6.583 0 002.185.45c.963.043 1.268.056 3.71.056s2.755 0 3.71-.056a6.59 6.59 0 002.186-.419 4.615 4.615 0 002.633-2.633c.263-.7.404-1.438.419-2.187.043-.962.056-1.267.056-3.71-.002-2.442-.002-2.752-.058-3.709zm-8.953 8.297a4.622 4.622 0 01-4.623-4.623 4.622 4.622 0 114.623 4.623zm4.807-8.339a1.077 1.077 0 110-2.156 1.078 1.078 0 010 2.156z" fill="#C39"/><path d="M11.994 14.982a3.003 3.003 0 100-6.006 3.003 3.003 0 000 6.006z" fill="#C39"/></symbol><symbol fill="none" viewBox="0 0 24 24" id="letter" xmlns="http://www.w3.org/2000/svg"><path d="M22 6c0-1.1-.9-2-2-2H4c-1.1 0-2 .9-2 2v12c0 1.1.9 2 2 2h16c1.1 0 2-.9 2-2V6zm-2 0l-8 5-8-5h16zm0 12H4V8l8 5 8-5v10z" fill="#DECD30"/></symbol><symbol fill="none" viewBox="0 0 6 8" id="little-arrow" xmlns="http://www.w3.org/2000/svg"><path d="M6 4L0 7.464V.536L6 4z" fill="#fff"/></symbol><symbol fill="none" viewBox="0 0 22 22" id="mail" xmlns="http://www.w3.org/2000/svg"><path d="M11 1.833C5.94 1.833 1.833 5.94 1.833 11S5.94 20.167 11 20.167h4.583v-1.834H11c-3.978 0-7.333-3.355-7.333-7.333S7.022 3.667 11 3.667 18.333 7.022 18.333 11v1.31c0 .725-.65 1.44-1.375 1.44-.724 0-1.375-.715-1.375-1.44V11A4.585 4.585 0 0011 6.417 4.585 4.585 0 006.417 11a4.585 4.585 0 007.828 3.236c.596.816 1.623 1.347 2.713 1.347 1.806 0 3.209-1.466 3.209-3.272V11c0-5.06-4.107-9.167-9.167-9.167zm0 11.917A2.746 2.746 0 018.25 11 2.746 2.746 0 0111 8.25 2.746 2.746 0 0113.75 11 2.746 2.746 0 0111 13.75z" fill="#C36"/></symbol><symbol fill="none" viewBox="0 0 22 22" id="message" xmlns="http://www.w3.org/2000/svg"><path d="M18.333 1.833H3.667a1.839 1.839 0 00-1.834 1.834v16.5L5.5 16.5h12.833a1.839 1.839 0 001.834-1.833v-11a1.839 1.839 0 00-1.834-1.834zm0 12.834H4.74l-1.072 1.072V3.667h14.666v11zM6.417 8.25H8.25v1.833H6.417V8.25zm7.333 0h1.833v1.833H13.75V8.25zm-3.667 0h1.834v1.833h-1.834V8.25z" fill="#F96"/></symbol><symbol fill="none" viewBox="0 0 20 20" id="neg-feedback" xmlns="http://www.w3.org/2000/svg"><path d="M18 .225H4.693A2.015 2.015 0 002.82 1.52L.063 8.845a.994.994 0 00-.063.35v1.994c0 1.099.897 1.993 2 1.993h5.612L6.49 16.538a1.99 1.99 0 00.274 1.796c.376.518.982.828 1.624.828H10c.297 0 .578-.131.769-.359l4.7-5.621H18c1.103 0 2-.894 2-1.993v-8.97c0-1.1-.897-1.994-2-1.994zM9.531 17.17H8.386l1.562-4.67a.993.993 0 00-.493-1.202 1.002 1.002 0 00-.455-.11H2V9.377L4.693 2.22H14v9.606L9.531 17.17zM16 11.189v-8.97h2l.001 8.97H16z" fill="#E37373"/></symbol><symbol viewBox="0 0 492.004 492.004" id="next" xmlns="http://www.w3.org/2000/svg"><path d="M382.678 226.804L163.73 7.86C158.666 2.792 151.906 0 144.698 0s-13.968 2.792-19.032 7.86l-16.124 16.12c-10.492 10.504-10.492 27.576 0 38.064L293.398 245.9l-184.06 184.06c-5.064 5.068-7.86 11.824-7.86 19.028 0 7.212 2.796 13.968 7.86 19.04l16.124 16.116c5.068 5.068 11.824 7.86 19.032 7.86s13.968-2.792 19.032-7.86L382.678 265c5.076-5.084 7.864-11.872 7.848-19.088.016-7.244-2.772-14.028-7.848-19.108z"/></symbol><symbol fill="none" viewBox="0 0 26 18" id="no.png" xmlns="http://www.w3.org/2000/svg"><g clip-path="url(#arclip0)"><path d="M7.222-.389H2.89A2.889 2.889 0 000 2.5v4.333h7.222V-.389zm15.89 0H11.555v7.222H26V2.5a2.89 2.89 0 00-2.889-2.889zM7.221 18.39H2.89A2.889 2.889 0 010 15.5v-4.333h7.222v7.222zm15.89 0H11.555v-7.222H26V15.5a2.889 2.889 0 01-2.889 2.889z" fill="#EF2B2D"/><path d="M10.472-.389H8.346l-.018 8.306H0v2.166h8.324l-.018 8.306h2.166v-8.306H26V7.917H10.472V-.39z" fill="#002868"/><path d="M10.472 18.389h1.084v-7.222H26v-1.084H10.472v8.306zM11.556-.39h-1.084v8.306H26V6.833H11.556V-.389zm-3.25 0H7.222v7.222H0v1.084h8.306V-.39zM0 10.083v1.084h7.222v7.222h1.084v-8.306H0z" fill="#EEE"/></g><defs><clipPath id="arclip0"><path fill="#fff" d="M0 0h26v18H0z"/></clipPath></defs></symbol><symbol fill="none" viewBox="0 0 16 20" id="page" xmlns="http://www.w3.org/2000/svg"><path d="M3 0h10a3 3 0 013 3v14a3 3 0 01-3 3H3a3 3 0 01-3-3V3a3 3 0 013-3zm1 7a1 1 0 000 2h8a1 1 0 100-2H4zm0 8a1 1 0 000 2h5a1 1 0 000-2H4zM4 3a1 1 0 000 2h8a1 1 0 100-2H4zm0 8a1 1 0 000 2h8a1 1 0 000-2H4z" fill="#EF2B2D"/></symbol><symbol fill="none" viewBox="0 0 16 16" id="phone" xmlns="http://www.w3.org/2000/svg"><path d="M9.228 9.23c-1.583 1.581-3.417 3.095-4.142 2.37-1.037-1.037-1.677-1.94-3.965-.102-2.287 1.838-.53 3.064.475 4.068 1.16 1.16 5.484.062 9.758-4.21 4.273-4.275 5.368-8.599 4.207-9.759-1.005-1.006-2.225-2.762-4.063-.475-1.839 2.287-.936 2.927.103 3.965.722.725-.79 2.56-2.373 4.142z" fill="#5ACA65"/></symbol><symbol fill="none" viewBox="0 0 20 20" id="phone2" xmlns="http://www.w3.org/2000/svg"><path d="M19.068 3.16L16.483.578a1.962 1.962 0 00-2.784 0l-2.782 2.781a1.964 1.964 0 000 2.784l2.034 2.034a9.558 9.558 0 01-1.954 2.818 9.594 9.594 0 01-2.818 1.961l-2.033-2.034a1.964 1.964 0 00-2.784 0l-2.784 2.78A1.962 1.962 0 000 15.095c0 .526.206 1.021.578 1.393l2.58 2.58a3.19 3.19 0 002.764.888c3.272-.538 6.517-2.279 9.136-4.895 2.616-2.614 4.354-5.857 4.9-9.139a3.194 3.194 0 00-.89-2.762z" fill="#EF2B2D"/></symbol><symbol fill="none" viewBox="0 0 20 20" id="pos-feedback" xmlns="http://www.w3.org/2000/svg"><path d="M18 6.831h-5.612l1.123-3.356A1.995 1.995 0 0011.612.851H10c-.297 0-.578.132-.769.359l-4.7 5.621H2c-1.103 0-2 .894-2 1.993v8.97c0 1.1.897 1.994 2 1.994h13.307a2.014 2.014 0 001.873-1.294l2.757-7.326a.993.993 0 00.063-.35V8.824a1.999 1.999 0 00-2-1.993zM2 8.824h2v8.97H2v-8.97zm16 1.813l-2.693 7.157H6V8.19l4.468-5.345h1.146l-1.562 4.668A.992.992 0 0011 8.824h7v1.813z" fill="#5ACA65"/></symbol><symbol fill="none" viewBox="0 0 20 19" id="pos-feedback-white" xmlns="http://www.w3.org/2000/svg"><path d="M18 5.99h-5.612l1.123-3.361c.202-.607.1-1.28-.275-1.8A2.01 2.01 0 0011.612 0H10c-.297 0-.578.132-.769.36l-4.7 5.63H2a2 2 0 00-2 1.997v8.986a2 2 0 002 1.997h13.307a2.012 2.012 0 001.873-1.296l2.757-7.34a.996.996 0 00.063-.35V7.987a2 2 0 00-2-1.996zM2 7.988h2v8.986H2V7.987zm16 1.817l-2.693 7.17H6V7.35l4.468-5.353h1.146l-1.562 4.675A.996.996 0 0011 7.987h7v1.817z" fill="#fff"/></symbol><symbol viewBox="0 0 512.005 512.005" id="search" xmlns="http://www.w3.org/2000/svg"><path d="M505.749 475.587l-145.6-145.6c28.203-34.837 45.184-79.104 45.184-127.317C405.333 90.926 314.41.003 202.666.003S0 90.925 0 202.669s90.923 202.667 202.667 202.667c48.213 0 92.48-16.981 127.317-45.184l145.6 145.6c4.16 4.16 9.621 6.251 15.083 6.251s10.923-2.091 15.083-6.251c8.341-8.341 8.341-21.824-.001-30.165zM202.667 362.669c-88.235 0-160-71.765-160-160s71.765-160 160-160 160 71.765 160 160-71.766 160-160 160z"/></symbol><symbol viewBox="0 0 448.941 448.941" id="star" xmlns="http://www.w3.org/2000/svg"><path d="M448.941 168.353H287.603L224.471 0l-63.132 168.353H0l121.478 106.293-65.36 174.295 168.353-84.176 168.353 84.176-65.361-174.296z"/></symbol><symbol viewBox="0 0 38 38" id="tail-spin" xmlns="http://www.w3.org/2000/svg"><g transform="translate(1 1)" fill="none" fill-rule="evenodd"><path d="M36 18c0-9.94-8.06-18-18-18"><animateTransform attributeName="transform" type="rotate" from="0 18 18" to="360 18 18" dur="0.9s" repeatCount="indefinite"/></path><circle fill="#fff" cx="36" cy="18" r="1"><animateTransform attributeName="transform" type="rotate" from="0 18 18" to="360 18 18" dur="0.9s" repeatCount="indefinite"/></circle></g></symbol><symbol fill="none" viewBox="0 0 22 22" id="web" xmlns="http://www.w3.org/2000/svg"><path d="M14.997 12.833c.073-.605.128-1.21.128-1.833s-.055-1.228-.128-1.833h3.098c.147.586.238 1.2.238 1.833s-.091 1.247-.238 1.833h-3.098zm-1.623 5.097c.55-1.017.972-2.117 1.265-3.263h2.704a7.36 7.36 0 01-3.969 3.263zm-.229-5.097h-4.29A12.162 12.162 0 018.708 11c0-.623.055-1.238.147-1.833h4.29c.082.595.147 1.21.147 1.833s-.065 1.228-.147 1.833zM11 18.297c-.76-1.1-1.375-2.32-1.75-3.63h3.5c-.375 1.31-.99 2.53-1.75 3.63zM7.333 7.333H4.657a7.263 7.263 0 013.96-3.263c-.55 1.017-.963 2.117-1.284 3.263zm-2.676 7.334h2.676c.321 1.146.734 2.246 1.284 3.263a7.34 7.34 0 01-3.96-3.263zm-.752-1.834A7.555 7.555 0 013.667 11c0-.633.091-1.247.238-1.833h3.098c-.073.605-.128 1.21-.128 1.833s.055 1.228.128 1.833H3.905zM11 3.694c.76 1.1 1.375 2.328 1.75 3.64h-3.5c.375-1.312.99-2.54 1.75-3.64zm6.343 3.64H14.64a14.34 14.34 0 00-1.265-3.264 7.321 7.321 0 013.97 3.263zM11 1.833c-5.07 0-9.167 4.124-9.167 9.166A9.167 9.167 0 1011 1.833z" fill="#39C"/></symbol></svg>