<?xml version="1.0" encoding="utf-8"?><svg xmlns="http://www.w3.org/2000/svg" xmlns:xlink="http://www.w3.org/1999/xlink"><symbol fill="none" viewBox="0 0 21 19" id="attention" xmlns="http://www.w3.org/2000/svg"><path d="M8.8 1.162a2 2 0 013.4 0l7.642 12.323c.826 1.333-.132 3.055-1.7 3.055H2.858c-1.568 0-2.526-1.722-1.7-3.054L8.8 1.162z" fill="red"/><path d="M11.238 11.276H9.832l-.2-5.912h1.806l-.2 5.912zm-.703.925c.285 0 .514.084.686.252a.852.852 0 01.263.645.85.85 0 01-.263.639c-.172.168-.4.252-.686.252-.281 0-.51-.085-.685-.252a.855.855 0 01-.258-.64c0-.257.086-.47.258-.638.175-.172.404-.258.685-.258z" fill="#fff"/></symbol><symbol fill="none" viewBox="0 0 26 18" id="flag-norway" xmlns="http://www.w3.org/2000/svg"><g clip-path="url(#bclip0)"><path d="M7.222-.389H2.89A2.889 2.889 0 000 2.5v4.333h7.222V-.389zm15.89 0H11.555v7.222H26V2.5a2.89 2.89 0 00-2.889-2.889zM7.221 18.39H2.89A2.889 2.889 0 010 15.5v-4.333h7.222v7.222zm15.89 0H11.555v-7.222H26V15.5a2.889 2.889 0 01-2.889 2.889z" fill="#EF2B2D"/><path d="M10.472-.389H8.346l-.018 8.306H0v2.166h8.324l-.018 8.306h2.166v-8.306H26V7.917H10.472V-.39z" fill="#002868"/><path d="M10.472 18.389h1.084v-7.222H26v-1.084H10.472v8.306zM11.556-.39h-1.084v8.306H26V6.833H11.556V-.389zm-3.25 0H7.222v7.222H0v1.084h8.306V-.39zM0 10.083v1.084h7.222v7.222h1.084v-8.306H0z" fill="#EEE"/></g><defs><clipPath id="bclip0"><path fill="#fff" d="M0 0h26v18H0z"/></clipPath></defs></symbol><symbol viewBox="0 0 512 512" id="ico" xmlns="http://www.w3.org/2000/svg"><path d="M32 464V48c0-8.837 7.163-16 16-16h240v64c0 17.673 14.327 32 32 32h64v48h32v-64a15.997 15.997 0 00-4.64-11.36l-96-96A16.001 16.001 0 00304 0H48C21.49 0 0 21.491 0 48v416c0 26.51 21.49 48 48 48h112v-32H48c-8.836 0-16-7.163-16-16zm416-208c-35.346 0-64 28.654-64 64v32c0 35.346 28.654 64 64 64 35.346 0 64-28.654 64-64v-32c0-35.346-28.654-64-64-64zm32 96c0 17.673-14.327 32-32 32-17.673 0-32-14.327-32-32v-32c0-17.673 14.327-32 32-32 17.673 0 32 14.327 32 32v32z"/><path d="M304 288c17.673 0 32 14.327 32 32h32c0-35.346-28.654-64-64-64-35.346 0-64 28.654-64 64v32c0 35.346 28.654 64 64 64 35.346 0 64-28.654 64-64h-32c0 17.673-14.327 32-32 32-17.673 0-32-14.327-32-32v-32c0-17.673 14.327-32 32-32zm-112-32h32v160h-32z"/></symbol><symbol viewBox="0 0 492.004 492.004" id="next" xmlns="http://www.w3.org/2000/svg"><path d="M382.678 226.804L163.73 7.86C158.666 2.792 151.906 0 144.698 0s-13.968 2.792-19.032 7.86l-16.124 16.12c-10.492 10.504-10.492 27.576 0 38.064L293.398 245.9l-184.06 184.06c-5.064 5.068-7.86 11.824-7.86 19.028 0 7.212 2.796 13.968 7.86 19.04l16.124 16.116c5.068 5.068 11.824 7.86 19.032 7.86s13.968-2.792 19.032-7.86L382.678 265c5.076-5.084 7.864-11.872 7.848-19.088.016-7.244-2.772-14.028-7.848-19.108z"/></symbol><symbol  viewBox="0 0 16 16" id="phone" xmlns="http://www.w3.org/2000/svg"><path d="M9.228 9.23c-1.583 1.581-3.417 3.095-4.142 2.37-1.037-1.037-1.677-1.94-3.965-.102-2.287 1.838-.53 3.064.475 4.068 1.16 1.16 5.484.062 9.758-4.21 4.273-4.275 5.368-8.599 4.207-9.759-1.005-1.006-2.225-2.762-4.063-.475-1.839 2.287-.936 2.927.103 3.965.722.725-.79 2.56-2.373 4.142z" fill="#5ACA65"/></symbol><symbol viewBox="0 0 512.005 512.005" id="search" xmlns="http://www.w3.org/2000/svg"><path d="M505.749 475.587l-145.6-145.6c28.203-34.837 45.184-79.104 45.184-127.317C405.333 90.926 314.41.003 202.666.003S0 90.925 0 202.669s90.923 202.667 202.667 202.667c48.213 0 92.48-16.981 127.317-45.184l145.6 145.6c4.16 4.16 9.621 6.251 15.083 6.251s10.923-2.091 15.083-6.251c8.341-8.341 8.341-21.824-.001-30.165zM202.667 362.669c-88.235 0-160-71.765-160-160s71.765-160 160-160 160 71.765 160 160-71.766 160-160 160z"/></symbol></svg>