<?xml version="1.0" encoding="utf-8"?><svg xmlns="http://www.w3.org/2000/svg" xmlns:xlink="http://www.w3.org/1999/xlink"><symbol fill="none" viewBox="0 0 21 19" id="attention" xmlns="http://www.w3.org/2000/svg"><path d="M8.8 1.162a2 2 0 013.4 0l7.642 12.323c.826 1.333-.132 3.055-1.7 3.055H2.858c-1.568 0-2.526-1.722-1.7-3.054L8.8 1.162z" fill="red"/><path d="M11.238 11.276H9.832l-.2-5.912h1.806l-.2 5.912zm-.703.925c.285 0 .514.084.686.252a.852.852 0 01.263.645.85.85 0 01-.263.639c-.172.168-.4.252-.686.252-.281 0-.51-.085-.685-.252a.855.855 0 01-.258-.64c0-.257.086-.47.258-.638.175-.172.404-.258.685-.258z" fill="#fff"/></symbol><symbol fill="none" viewBox="0 0 22 22" id="fax" xmlns="http://www.w3.org/2000/svg"><path d="M8.25 3.438v3.437H6.875V5.5H2.75v12.375h1.375v.688c0 1.13.932 2.062 2.063 2.062 1.13 0 2.062-.932 2.062-2.063v-.687h11v-11H16.5V3.437H8.25zm1.375 1.374h5.5V8.25h-5.5V4.812zm-5.5 2.063H5.5V16.5H4.125V6.875zm2.75 1.375H8.25v1.375h8.25V8.25h1.375v8.25h-11V8.25zM8.938 11v1.375h1.374V11H8.938zm2.75 0v1.375h1.374V11h-1.374zm2.75 0v1.375h1.374V11h-1.374zm-5.5 2.75v1.375h1.374V13.75H8.938zm2.75 0v1.375h1.374V13.75h-1.374zm2.75 0v1.375h1.374V13.75h-1.374zM5.5 17.875h1.375v.688a.685.685 0 01-.688.687.685.685 0 01-.687-.688v-.687z" fill="#0028B6"/></symbol><symbol fill="none" viewBox="0 0 26 18" id="flag-norway" xmlns="http://www.w3.org/2000/svg"><g clip-path="url(#cclip0)"><path d="M7.222-.389H2.89A2.889 2.889 0 000 2.5v4.333h7.222V-.389zm15.89 0H11.555v7.222H26V2.5a2.89 2.89 0 00-2.889-2.889zM7.221 18.39H2.89A2.889 2.889 0 010 15.5v-4.333h7.222v7.222zm15.89 0H11.555v-7.222H26V15.5a2.889 2.889 0 01-2.889 2.889z" fill="#EF2B2D"/><path d="M10.472-.389H8.346l-.018 8.306H0v2.166h8.324l-.018 8.306h2.166v-8.306H26V7.917H10.472V-.39z" fill="#002868"/><path d="M10.472 18.389h1.084v-7.222H26v-1.084H10.472v8.306zM11.556-.39h-1.084v8.306H26V6.833H11.556V-.389zm-3.25 0H7.222v7.222H0v1.084h8.306V-.39zM0 10.083v1.084h7.222v7.222h1.084v-8.306H0z" fill="#EEE"/></g><defs><clipPath id="cclip0"><path fill="#fff" d="M0 0h26v18H0z"/></clipPath></defs></symbol><symbol viewBox="0 0 512 512" id="ico" xmlns="http://www.w3.org/2000/svg"><path d="M32 464V48c0-8.837 7.163-16 16-16h240v64c0 17.673 14.327 32 32 32h64v48h32v-64a15.997 15.997 0 00-4.64-11.36l-96-96A16.001 16.001 0 00304 0H48C21.49 0 0 21.491 0 48v416c0 26.51 21.49 48 48 48h112v-32H48c-8.836 0-16-7.163-16-16zm416-208c-35.346 0-64 28.654-64 64v32c0 35.346 28.654 64 64 64 35.346 0 64-28.654 64-64v-32c0-35.346-28.654-64-64-64zm32 96c0 17.673-14.327 32-32 32-17.673 0-32-14.327-32-32v-32c0-17.673 14.327-32 32-32 17.673 0 32 14.327 32 32v32z"/><path d="M304 288c17.673 0 32 14.327 32 32h32c0-35.346-28.654-64-64-64-35.346 0-64 28.654-64 64v32c0 35.346 28.654 64 64 64 35.346 0 64-28.654 64-64h-32c0 17.673-14.327 32-32 32-17.673 0-32-14.327-32-32v-32c0-17.673 14.327-32 32-32zm-112-32h32v160h-32z"/></symbol><symbol fill="none" viewBox="0 0 24 24" id="letter" xmlns="http://www.w3.org/2000/svg"><path d="M22 6c0-1.1-.9-2-2-2H4c-1.1 0-2 .9-2 2v12c0 1.1.9 2 2 2h16c1.1 0 2-.9 2-2V6zm-2 0l-8 5-8-5h16zm0 12H4V8l8 5 8-5v10z" fill="#DECD30"/></symbol><symbol fill="none" viewBox="0 0 22 22" id="mail" xmlns="http://www.w3.org/2000/svg"><path d="M11 1.833C5.94 1.833 1.833 5.94 1.833 11S5.94 20.167 11 20.167h4.583v-1.834H11c-3.978 0-7.333-3.355-7.333-7.333S7.022 3.667 11 3.667 18.333 7.022 18.333 11v1.31c0 .725-.65 1.44-1.375 1.44-.724 0-1.375-.715-1.375-1.44V11A4.585 4.585 0 0011 6.417 4.585 4.585 0 006.417 11a4.585 4.585 0 007.828 3.236c.596.816 1.623 1.347 2.713 1.347 1.806 0 3.209-1.466 3.209-3.272V11c0-5.06-4.107-9.167-9.167-9.167zm0 11.917A2.746 2.746 0 018.25 11 2.746 2.746 0 0111 8.25 2.746 2.746 0 0113.75 11 2.746 2.746 0 0111 13.75z" fill="#C36"/></symbol><symbol fill="none" viewBox="0 0 22 22" id="message" xmlns="http://www.w3.org/2000/svg"><path d="M18.333 1.833H3.667a1.839 1.839 0 00-1.834 1.834v16.5L5.5 16.5h12.833a1.839 1.839 0 001.834-1.833v-11a1.839 1.839 0 00-1.834-1.834zm0 12.834H4.74l-1.072 1.072V3.667h14.666v11zM6.417 8.25H8.25v1.833H6.417V8.25zm7.333 0h1.833v1.833H13.75V8.25zm-3.667 0h1.834v1.833h-1.834V8.25z" fill="#F96"/></symbol><symbol viewBox="0 0 492.004 492.004" id="next" xmlns="http://www.w3.org/2000/svg"><path d="M382.678 226.804L163.73 7.86C158.666 2.792 151.906 0 144.698 0s-13.968 2.792-19.032 7.86l-16.124 16.12c-10.492 10.504-10.492 27.576 0 38.064L293.398 245.9l-184.06 184.06c-5.064 5.068-7.86 11.824-7.86 19.028 0 7.212 2.796 13.968 7.86 19.04l16.124 16.116c5.068 5.068 11.824 7.86 19.032 7.86s13.968-2.792 19.032-7.86L382.678 265c5.076-5.084 7.864-11.872 7.848-19.088.016-7.244-2.772-14.028-7.848-19.108z"/></symbol><symbol fill="none" viewBox="0 0 16 16" id="phone" xmlns="http://www.w3.org/2000/svg"><path d="M9.228 9.23c-1.583 1.581-3.417 3.095-4.142 2.37-1.037-1.037-1.677-1.94-3.965-.102-2.287 1.838-.53 3.064.475 4.068 1.16 1.16 5.484.062 9.758-4.21 4.273-4.275 5.368-8.599 4.207-9.759-1.005-1.006-2.225-2.762-4.063-.475-1.839 2.287-.936 2.927.103 3.965.722.725-.79 2.56-2.373 4.142z" fill="#5ACA65"/></symbol><symbol viewBox="0 0 512.005 512.005" id="search" xmlns="http://www.w3.org/2000/svg"><path d="M505.749 475.587l-145.6-145.6c28.203-34.837 45.184-79.104 45.184-127.317C405.333 90.926 314.41.003 202.666.003S0 90.925 0 202.669s90.923 202.667 202.667 202.667c48.213 0 92.48-16.981 127.317-45.184l145.6 145.6c4.16 4.16 9.621 6.251 15.083 6.251s10.923-2.091 15.083-6.251c8.341-8.341 8.341-21.824-.001-30.165zM202.667 362.669c-88.235 0-160-71.765-160-160s71.765-160 160-160 160 71.765 160 160-71.766 160-160 160z"/></symbol></svg>